<?xml version="1.0" encoding="UTF-8"?>
<svg viewBox="0 0 1024 1024" xmlns="http://www.w3.org/2000/svg">
  <path
    d="M896 256H768V149.333333C768 81.066667 712.533333 25.6 644.266667 25.6H379.733333C311.466667 25.6 256 81.066667 256 149.333333V256H128c-35.2 0-64 28.8-64 64v618.666667c0 35.2 28.8 64 64 64h768c35.2 0 64-28.8 64-64V320c0-35.2-28.8-64-64-64zM341.333333 149.333333c0-21.333333 17.066667-38.4 38.4-38.4h264.533334c21.333333 0 38.4 17.066667 38.4 38.4V256H341.333333V149.333333zM512 879.466667c-117.333333 0-213.333333-96-213.333333-213.333334S394.666667 452.266667 512 452.266667c83.2 0 157.866667 46.933333 192 119.466666 8.533333 21.333333 0 46.933333-21.333333 55.466667-21.333333 8.533333-46.933333 0-55.466667-21.333333-21.333333-42.666667-64-72.533333-115.2-72.533334-72.533333 0-132.266667 59.733333-132.266667 132.266667s59.733333 132.266667 132.266667 132.266667c64 0 119.466667-46.933333 128-110.933334h-85.333334c-25.6 0-42.666667-17.066667-42.666666-42.666666s17.066667-42.666667 42.666666-42.666667h128c25.6 0 42.666667 17.066667 42.666667 42.666667 0 132.266667-106.666667 238.933333-238.933333 238.933333z"
    fill="#bfbfbf"
  />
</svg>
